<svg xmlns="http://www.w3.org/2000/svg" width="173.391" height="231.188" viewBox="0 0 173.391 231.188">
  <path id="Path_13" data-name="Path 13" d="M173.391,151.433c0,41.594-36.009,79.755-86.727,79.755-26.128,0-48.524-10.3-63.893-25.844A76.594,76.594,0,0,1,5.645,179.5c-8.783-21.4-7.9-46.238,6.806-68.65L65.366,29.277l6.148-9.49a2.582,2.582,0,0,1,4.171,0l6.148,9.49L87.1,37.354,118.72,86.216l18,27.864,5.05,7.874c1.1,1.615,1.976,3.433,2.854,5.048a53.984,53.984,0,0,1,6.148,24.835c0,28.268-22.615,54.314-55.33,58.151a15.746,15.746,0,0,1-3.074.2c-.878,0-1.757.2-2.854.2H83.809V197.873l30.08-47.853H80.077V179.5c0,11.307-6.148,21.4-17.126,26.854a66.284,66.284,0,0,1-12.735-6.259c-1.1-.808-2.415-1.615-3.513-2.423a58.974,58.974,0,0,1-21.517-30.287,59.91,59.91,0,0,1-2.415-13.932,54.939,54.939,0,0,1,9-31.5L65.146,70.467,73.27,57.747v5.048a70,70,0,0,1-11.2,37.555L43.849,128.415a43.761,43.761,0,0,0-7.026,20.393,51.16,51.16,0,0,0,.439,10.1c2.415,13.528,11.417,25.845,24.591,32.71a20.767,20.767,0,0,0,3.952-10.9V136.9H129.7v12.922l-28.543,46.238c21.3-5.855,35.569-24.23,35.569-44.017a44.254,44.254,0,0,0-1.317-10.5,45,45,0,0,0-5.709-12.922l-1.1-1.817L106.424,92.677,86.883,62.391,78.759,49.67l-4.172-6.461a1.109,1.109,0,0,0-1.976,0l-48.3,74.505a61.812,61.812,0,0,0-9.88,42,62.775,62.775,0,0,0,6.587,20.8,66.361,66.361,0,0,0,12.735,17.162c.659.808,1.537,1.414,2.2,2.221a73.258,73.258,0,0,0,14.711,10.1c.439.2.659.4,1.1.605a76.5,76.5,0,0,0,20.639,6.865,81.35,81.35,0,0,0,14.272,1.212h.22c42.375-.2,72.456-32.1,72.456-66.833a63.628,63.628,0,0,0-10.32-34.123L126.4,82.784,86.664,21.2,78.54,8.48,73.051,0c10.1,0,19.541,4.846,24.811,12.922l40.838,63,22.615,34.931A75.105,75.105,0,0,1,173.391,151.433Z" fill="#fff"/>
</svg>
